<svg id="Layer_1" data-name="Layer 1" xmlns="http://www.w3.org/2000/svg" viewBox="0 0 162.39 165">
  <title>papi-nation-logo</title>
  <path d="M51,40.68v19c0,11.44-4.35,15.11-12.36,15.11h-.25v4.57h11.9c8,0,12.36-3.66,12.36-15.1v-19c0-11.44-4.35-15.11-12.36-15.11H48.74C50.21,32.52,51,35.88,51,40.68Z" transform="translate(-1.58 -2.69)"/>
  <path d="M50.31,7.26A48.12,48.12,0,0,1,66.64,9.8,104.06,104.06,0,0,0,52.1,5,91.63,91.63,0,0,0,31,2.69H1.58V162.91l11.65,4.57V7.26Z" transform="translate(-1.58 -2.69)"/>
  <polygon points="85.57 6.33 116.81 6.33 105.31 1.8 74.07 1.8 74.07 160.28 85.38 165 85.81 164.81 85.57 164.81 85.57 6.33"/>
  <polygon points="129.99 1.8 129.99 57.94 141.04 101.19 141.49 101.19 141.49 6.33 162.39 6.33 152.18 1.8 129.99 1.8"/>
  <polygon points="107.75 49.12 107.75 87.35 126.59 160.28 138.09 164.81 108.21 49.12 107.75 49.12"/>
</svg>
